# xmcd
#
# Track frame offsets: 
#        150
#        12321
#        27056
#        39039
#        50911
#        62192
#        75631
#        88471
#        101046
#        113106
#        124978
#        135812
#        146548
#        154992
#        166592
#        176290
#
# Disc length: 2590 seconds
#
# Revision: 0
# Processed by: cddbd v1.5.2PL0 Copyright (c) Steve Scherf et al.
# Submitted via: ExactAudioCopy v0.99pb4
#
DISCID=cb0a1c10
DTITLE=Johnny "Guitar" Watson - Hot Little Mama
DYEAR=2007
DGENRE=Blues
TTITLE0=Too Tired
TTITLE1=Don't Touch Me
TTITLE2=Hot Little Mama
TTITLE3=Love To Love You Baby
TTITLE4=Oh Baby
TTITLE5=Someone Cares For Me
TTITLE6=She Moves Me
TTITLE7=Love Me Baby
TTITLE8=Gangster Of Love
TTITLE9=One Room Country Shack
TTITLE10=One More Kiss
TTITLE11=Johnny Guitar
TTITLE12=Looking Back
TTITLE13=The Eagle Is Back
TTITLE14=Acoustic Jam # 1
TTITLE15=Acoustic Jam # 2
EXTD=
EXTT0=
EXTT1=
EXTT2=
EXTT3=
EXTT4=
EXTT5=
EXTT6=
EXTT7=
EXTT8=
EXTT9=
EXTT10=
EXTT11=
EXTT12=
EXTT13=
EXTT14=
EXTT15=
PLAYORDER=
